<svg xmlns="http://www.w3.org/2000/svg" width="18" height="16" fill="none"><path fill="#F0F7F7" d="M8.05 7.47c.06.12 0 .18-.17.18-.25 0-.49-.03-.73-.09C6.2 7.2 5.5 6.9 5 6.66a8.66 8.66 0 0 1-1 1.8c-.48.75-.93 1.53-1.33 2.34-.34.6-.53 1.28-.56 1.97a1.98 1.98 0 0 0 .63 1.44 1.88 1.88 0 0 0 1.35.63c.25 0 .5-.06.72-.18a.65.65 0 0 0 .45-.27c.08-.07.17-.13.27-.18a.77.77 0 0 1 .55.27.82.82 0 0 1 .18.72c-.06.42-.36.66-.9.72-.96.01-1.9-.34-2.6-.99a3.5 3.5 0 0 1-1.53-2.88c.1-1 .5-1.94 1.17-2.69h-.18A1.27 1.27 0 0 1 .87 8.1a2.31 2.31 0 0 1 .63-1.7 2.33 2.33 0 0 1 1.8-.56c.55.06.96.12 1.26.18.33-.6.52-1.28.55-1.98.02-.5-.1-1-.36-1.43a1.21 1.21 0 0 0-1.1-.56 1.35 1.35 0 0 0-1.08.56.45.45 0 0 1-.56.17 2.01 2.01 0 0 1-.9-.36c-.22-.21-.38-.5-.45-.8A1.47 1.47 0 0 1 1.11.54 1.66 1.66 0 0 1 2.37.09a3.14 3.14 0 0 1 2.25 1.34c.68.8 1.03 1.83.99 2.88-.03.65-.18 1.3-.45 1.89 1 .32 1.98.75 2.9 1.27ZM4.37 6.39a5.49 5.49 0 0 0-.99-.09 1.7 1.7 0 0 0-1.57.86c-.08.15-.12.32-.13.5 0 .47.2.71.63.71.6.06 1.2-.44 1.8-1.52a.55.55 0 0 0 .26-.46ZM8.8 7.65C7.54 7 6.85 6.15 6.73 5.14c-.07-.77.16-1.54.63-2.16a3.21 3.21 0 0 1 2.7-.99c1.47.18 2.64 1.32 3.5 3.41.47 1.33 1.04 1.99 1.7 1.98a1.04 1.04 0 0 0 1.11-.45c.23-.27.36-.62.36-.99a1.5 1.5 0 0 0-.72-1.34 1.7 1.7 0 0 0-1.07-.36.26.26 0 0 1-.19.09.24.24 0 0 1-.17-.1c-.18-.2-.3-.45-.37-.71a.88.88 0 0 1 .27-.63 1.1 1.1 0 0 1 1-.27 1.77 1.77 0 0 1 1.25 1.08c.5 1.03.7 2.18.55 3.32a6.69 6.69 0 0 1-2.33 4.58 7.19 7.19 0 0 1-4.67 1.8 4.14 4.14 0 0 1-3.15-1 3.05 3.05 0 0 1-.99-2.15c0-1.32.87-2.07 2.61-2.24l.04-.36Z"/></svg>